<?xml version="1.0" standalone="no"?>
<!DOCTYPE svg PUBLIC "-//W3C//DTD SVG 20010904//EN"
 "http://www.w3.org/TR/2001/REC-SVG-20010904/DTD/svg10.dtd">
<svg version="1.0" xmlns="http://www.w3.org/2000/svg"
 width="1024.000000pt" height="427.000000pt" viewBox="0 0 1024.000000 427.000000"
 preserveAspectRatio="xMidYMid meet">
<metadata>
Created by potrace 1.15, written by Peter Selinger 2001-2017
</metadata>
<g transform="translate(0.000000,427.000000) scale(0.100000,-0.100000)"
fill="#000000" stroke="none">
<path d="M2242 3918 c-6 -7 -155 -379 -331 -825 -176 -447 -327 -825 -335
-840 -36 -69 -122 -119 -225 -129 l-61 -7 0 -53 0 -54 300 0 300 0 0 55 c0 53
-1 55 -27 56 -76 1 -163 66 -163 120 0 10 32 100 71 199 l70 180 378 0 378 0
81 -208 c45 -115 82 -215 82 -224 0 -37 -75 -68 -167 -68 l-53 0 0 -55 0 -55
385 0 385 0 0 54 0 53 -101 5 c-79 4 -106 9 -127 25 -28 20 -29 22 -560 1358
l-167 420 -51 3 c-33 2 -55 -2 -62 -10z m142 -758 c85 -217 158 -403 161 -412
7 -17 -13 -18 -325 -18 -312 0 -332 1 -326 18 60 165 323 819 328 814 3 -4 76
-185 162 -402z"/>
<path d="M340 3804 l0 -62 143 -4 c172 -4 214 -19 235 -82 10 -30 12 -269 10
-1116 -3 -1077 -3 -1079 -24 -1107 -28 -38 -79 -50 -234 -59 l-130 -7 0 -58 0
-59 1000 0 c550 0 1000 1 1000 3 0 2 23 217 50 477 27 260 50 482 50 492 0 15
-8 18 -50 18 -57 0 -52 10 -70 -145 -29 -246 -99 -425 -210 -535 -152 -152
-334 -197 -753 -188 -218 5 -248 11 -266 57 -8 18 -11 354 -9 1128 l3 1101 23
25 c38 40 85 49 280 54 l182 5 0 62 0 61 -615 0 -615 0 0 -61z"/>
<path d="M7260 3804 l0 -61 133 -5 c152 -5 199 -20 258 -84 20 -22 194 -279
388 -572 l351 -533 -330 -489 c-349 -516 -387 -562 -493 -614 -61 -30 -195
-66 -246 -66 -20 0 -53 -3 -73 -6 l-38 -7 0 -58 0 -59 85 0 c99 0 94 10 64
-123 -74 -336 -187 -493 -407 -567 -124 -41 -233 -50 -620 -50 -396 0 -422 3
-442 55 -6 16 -10 235 -10 572 l0 546 238 -6 c319 -8 391 -28 453 -125 32 -50
45 -107 54 -234 l7 -88 49 0 49 0 0 510 0 510 -49 0 -49 0 -7 -87 c-13 -176
-39 -245 -110 -295 -70 -48 -137 -59 -397 -65 l-238 -6 0 496 c0 342 3 504 11
520 22 48 43 51 364 55 536 6 701 -23 838 -148 90 -82 148 -222 181 -430 9
-58 19 -120 22 -137 5 -32 6 -33 54 -33 41 0 50 3 50 18 0 9 -23 205 -52 434
l-52 418 -885 2 -886 3 -35 420 -35 420 -1175 3 -1176 2 -32 -412 c-18 -227
-33 -423 -32 -435 0 -21 5 -23 48 -23 l48 0 17 153 c29 265 78 412 160 483
100 85 200 107 492 108 254 1 278 -4 295 -63 15 -55 13 -2135 -3 -2181 -20
-57 -76 -79 -238 -90 -74 -5 -173 -9 -221 -10 l-88 0 0 -57 0 -58 730 0 730 0
0 58 0 57 -87 0 c-271 1 -425 28 -452 78 -8 15 -11 348 -11 1120 l0 1099 26
24 c26 24 26 24 247 24 258 0 338 -12 437 -62 141 -70 189 -172 231 -493 10
-80 19 -151 19 -157 0 -10 -35 -13 -140 -13 l-140 0 0 -58 0 -59 128 -6 c151
-8 207 -22 236 -60 21 -28 21 -30 24 -1099 1 -739 -1 -1082 -8 -1110 -17 -62
-68 -80 -242 -86 l-138 -5 0 -63 0 -64 1104 0 1104 0 6 27 c8 36 136 826 136
836 0 4 146 7 325 7 l325 0 0 59 c0 62 -8 70 -66 71 -38 0 -124 51 -149 88
-52 76 -55 69 257 533 155 230 285 419 289 419 9 0 611 -909 617 -932 10 -41
-107 -108 -189 -108 -52 0 -59 -8 -59 -69 l0 -56 535 -1 535 -1 0 57 0 57
-119 7 c-147 8 -206 25 -259 74 -25 22 -204 284 -452 659 l-410 622 276 403
c152 222 296 424 322 450 87 90 226 144 394 155 l88 6 0 63 0 64 -465 0 -465
0 0 -64 0 -63 49 -6 c108 -13 191 -86 191 -167 0 -24 -49 -103 -207 -338 -114
-169 -219 -324 -234 -344 l-26 -37 -257 385 c-141 211 -256 390 -256 397 0 20
50 64 93 82 20 8 64 18 97 22 l60 6 0 61 0 61 -535 0 -535 0 0 -61z"/>
</g>
</svg>
